 http://www.imdb.com/title/tt0979434/

cover 
http://a.imageshack.us/img80/8658/87f75eb820182afc3a05c2e.jpg

Genre: Comedy
Language:English
IMDb:http://www.imdb.com/title/tt0979434/
Source:DVD

General
Complete name :Lottery.Ticket.2010.DvDRip.H264.Feel-Free
Format : MPEG-4
Format profile : Base Media / Version 2
Codec ID : mp42
File size : 903 MiB
Duration : 1h 39mn
Overall bit rate : 1 274 Kbps
Video #1
Codec ID : avc1
Codec ID/Info : Advanced Video Coding
Duration : 1h 39mn
Bit rate mode : Variable
Bit rate : 709 Kbps
Width : 720 pixels
Height : 304 pixels
Display aspect ratio : 2.35:1
Frame rate mode : Constant
Frame rate : 23.976 fps
Resolution : 24 bits
Colorimetry : 4:2:0
Scan type : Progressive
Bits/(Pixel*Frame) : 0.135
Stream size : 503 MiB (56%)
Audio #2
ID : 2
Format : AAC
Format/Info : Advanced Audio Codec
Format version : Version 4
Format profile : LC
Format settings, SBR : No
Codec ID : 40
Duration : 1h 39mn
Bit rate mode : Constant
Bit rate : 560 Kbps
Nominal bit rate : 576 Kbps
Channel(s) : 6 channels
Channel positions : Front: L C R, Rear: L R, LFE
Sampling rate : 48.0 KHz
Resolution : 16 bits
Stream size : 397 MiB (44%)

Plot:
Kevin Carson is a young man living in the projects who has to survive a three-day weekend after his opportunistic neighbors find out he's holding a winning lottery ticket worth $370 million.

screen 
http://img18.imageshack.us/img18/3247/lotteryticket2010dvdrip.jpg 
http://img59.imageshack.us/img59/3247/lotteryticket2010dvdrip.jpg 
http://img340.imageshack.us/img340/3247/lotteryticket2010dvdrip.jpg 
http://img195.imageshack.us/img195/3247/lotteryticket2010dvdrip.jpg 
http://img59.imageshack.us/img59/368/lotteryticket2010dvdripx.jpg